<?xml version="1.0" encoding="utf-8"?>
<!-- Generator: Adobe Illustrator 16.0.0, SVG Export Plug-In . SVG Version: 6.00 Build 0)  -->
<!DOCTYPE svg PUBLIC "-//W3C//DTD SVG 1.1//EN" "http://www.w3.org/Graphics/SVG/1.1/DTD/svg11.dtd">
<svg version="1.1" id="图层_1" xmlns="http://www.w3.org/2000/svg" xmlns:xlink="http://www.w3.org/1999/xlink" x="0px" y="0px"
	 width="841.891px" height="595.281px" viewBox="0 0 841.891 595.281" enable-background="new 0 0 841.891 595.281"
	 xml:space="preserve">
<symbol  id="baomingrenshu" viewBox="-43.325 -39.179 86.65 78.358">
	<path fill="#EC6B4F" stroke="#EC6B4F" stroke-width="1.9199" stroke-miterlimit="22.9256" d="M-11.495-6.377
		c12.281,0,22.297,10.017,22.297,22.298c0,12.283-10.016,22.299-22.297,22.299c-12.282,0-22.3-10.016-22.3-22.299
		C-33.795,3.64-23.776-6.377-11.495-6.377z"/>
	<path fill="none" stroke="#EC6B4F" stroke-width="1.9199" stroke-miterlimit="22.9256" d="M12.802,34.14
		c11.661,0,21.117-9.454,21.117-21.113c0-11.663-9.456-21.118-21.117-21.118"/>
	<path fill="none" stroke="#EC6B4F" stroke-width="1.9199" stroke-miterlimit="22.9256" d="M42.365-38.693
		c0,16.326-13.237,29.562-29.563,29.562"/>
	<path fill="#EC6B4F" stroke="#EC6B4F" stroke-width="1.9199" stroke-miterlimit="22.9256" d="M-11.661-38.219h30.707
		c0,16.958-13.747,30.705-30.707,30.705c-16.957,0-30.704-13.747-30.704-30.705H-11.661z"/>
</symbol>
<symbol  id="camera" viewBox="-42.95 -33.24 85.9 66.48">
	<polygon fill="#B5B5B6" stroke="#B5B5B6" stroke-width="1.9199" stroke-linejoin="round" stroke-miterlimit="22.9256" points="
		-41.99,22.669 -19.829,22.669 -13.112,32.272 14.044,32.28 22.724,22.669 41.99,22.669 41.99,-32.28 -41.99,-32.28 	"/>
	<polygon fill="#FFFFFF" points="-37.357,5.484 -24.96,5.484 -24.96,16.206 -37.357,16.206 	"/>
	<path fill="none" stroke="#FFFFFF" stroke-width="1.9199" stroke-linejoin="round" stroke-miterlimit="22.9256" d="M1.019-22.482
		c9.229,0,16.753,7.523,16.753,16.754c0,9.226-7.523,16.752-16.753,16.752c-9.226,0-16.754-7.526-16.754-16.752
		C-15.735-14.959-8.207-22.482,1.019-22.482z"/>
	<polygon fill="#B5B5B6" points="-37.189,26.514 -25.798,26.514 -25.798,31.373 -37.189,31.373 	"/>
</symbol>
<symbol  id="company" viewBox="-43.019 -43.019 86.039 86.038">
	<polyline fill="none" stroke="#44A7DF" stroke-width="1.9199" stroke-linejoin="round" stroke-miterlimit="22.9256" points="
		18.927,-3.666 18.945,-27.569 7.788,-27.434 7.894,-13.205 -6.704,-13.119 -6.834,-27.458 -17.784,-27.522 -17.621,-3.287 
		-29.736,-3.092 0.81,27.571 29.739,-3.168 	"/>
	<path fill="none" stroke="#B5B5B6" stroke-width="1.9199" stroke-miterlimit="22.9256" d="M28.446-30.979
		C20.218-38.531,9.018-42.81-2.999-41.95C-26.167-40.293-43.606-20.169-41.951,3C-40.293,26.168-20.167,43.607,3,41.95
		c23.168-1.656,40.609-21.782,38.95-44.951c-0.578-8.095-3.413-15.489-7.842-21.616"/>
	<path fill="none" stroke="#44A7DF" stroke-width="1.9199" stroke-miterlimit="22.9256" d="M28.446-30.979
		C20.218-38.531,9.018-42.81-2.999-41.95C-26.167-40.293-43.606-20.169-41.951,3C-40.293,26.168-20.167,43.607,3,41.95
		c23.168-1.656,40.609-21.782,38.95-44.951c-0.578-8.095-3.413-15.489-7.842-21.616"/>
</symbol>
<symbol  id="discussion" viewBox="-42.793 -44.268 85.586 88.536">
	<path fill="#44A7DF" stroke="#44A7DF" stroke-width="1.9199" stroke-miterlimit="22.9256" d="M13.991-37.078
		c4.932,2.006,7.1,3.229,9.176,4.653c6-3.286,11.999-6.573,18.001-9.859c-6.694,21.453-4.462,14.303-6.694,21.453
		c4.586,7.052,6.71,14.734,6.71,22.63c0,22.918-18.591,41.509-41.51,41.509c-22.916,0-41.507-18.591-41.507-41.509
		c0-22.919,18.591-41.51,41.507-41.51C3.68-39.71,7.572-39.158,13.991-37.078z"/>
	<path fill="#FFFFFF" stroke="#FFFFFF" stroke-width="0.5669" stroke-miterlimit="22.9256" d="M-18.246-3.883
		c2.543,0,4.617,2.074,4.617,4.617s-2.073,4.618-4.617,4.618c-2.543,0-4.617-2.074-4.617-4.618S-20.789-3.883-18.246-3.883z"/>
	<path fill="#FFFFFF" stroke="#FFFFFF" stroke-width="0.5669" stroke-miterlimit="22.9256" d="M0.258-3.883
		c2.543,0,4.617,2.074,4.617,4.617S2.802,5.353,0.258,5.353c-2.543,0-4.617-2.074-4.617-4.618S-2.285-3.883,0.258-3.883z"/>
	<path fill="#FFFFFF" stroke="#FFFFFF" stroke-width="0.5669" stroke-miterlimit="22.9256" d="M17.789-3.883
		c2.543,0,4.617,2.074,4.617,4.617s-2.074,4.618-4.617,4.618c-2.547,0-4.62-2.074-4.62-4.618S15.242-3.883,17.789-3.883z"/>
</symbol>
<symbol  id="exit" viewBox="-42.586 -42.587 85.173 85.174">
	<path fill="#B5B5B6" stroke="#B5B5B6" stroke-width="1.9199" stroke-miterlimit="22.9256" d="M0-41.627
		c22.93,0,41.627,18.7,41.627,41.627S22.93,41.627,0,41.627c-22.926,0-41.626-18.7-41.626-41.628
		C-41.626-22.927-22.926-41.627,0-41.627z"/>
	<g>
		<polyline fill="none" stroke="#FFFFFF" stroke-width="1.9199" stroke-linejoin="round" stroke-miterlimit="22.9256" points="
			-3.402,23.76 18.426,23.76 18.426,-24.406 -3.708,-24.406 		"/>
		<polyline fill="none" stroke="#FFFFFF" stroke-width="1.4397" stroke-linejoin="round" stroke-miterlimit="22.9256" points="
			6.606,-5.45 -9.791,-5.45 -9.791,-12.146 -23.25,-0.371 -9.791,11.403 -9.791,4.708 6.606,4.708 		"/>
	</g>
</symbol>
<symbol  id="faxian" viewBox="-41.963 -41.961 83.925 83.922">
	<path fill="none" stroke="#44A7DF" stroke-width="1.9199" stroke-miterlimit="22.9256" d="M-39.278-11.743
		c-3.116,10.428-2.098,22.07,3.777,32.24c11.317,19.605,36.393,26.326,55.999,15.006C40.105,24.182,46.824-0.891,35.502-20.498
		C24.181-40.104-0.89-46.822-20.497-35.503c-6.851,3.956-12.125,9.59-15.609,16.084"/>
	<g>
		<polyline fill="none" stroke="#44A7DF" stroke-width="1.1999" stroke-miterlimit="22.9256" points="-4.355,3.828 -4.269,3.958 
			8.017,12.067 20.248,20.138 12.158,7.88 4.296,-4.414 		"/>
		<polyline fill="none" stroke="#44A7DF" stroke-width="1.1999" stroke-miterlimit="22.9256" points="-4.269,3.958 -12.358,-8.3 
			-20.448,-20.558 -8.188,-12.469 4.622,-4.041 		"/>
	</g>
	<path fill="none" stroke="#44A7DF" stroke-width="0.4799" stroke-miterlimit="22.9256" d="M0-2.432c1.34,0,2.431,1.092,2.431,2.433
		C2.431,1.34,1.34,2.432,0,2.432c-1.339,0-2.435-1.092-2.435-2.431C-2.435-1.339-1.339-2.432,0-2.432z"/>
</symbol>
<symbol  id="huodong" viewBox="-42.999 -42.998 85.997 85.996">
	<path fill="#44A7DF" stroke="#44A7DF" stroke-width="1.9199" stroke-miterlimit="22.9256" d="M2.535,1.369
		C7.722,3.099,14.58,1.059,18.04-2.399c3.817-3.818,3.132-10.702-0.685-14.514c-6.907-6.91-19.389-0.12-33.222-0.12
		c0,13.834-6.786,26.314,0.121,33.225c3.812,3.811,10.694,4.498,14.512,0.679C2.226,13.412,4.268,6.557,2.535,1.369z"/>
	<path fill="none" stroke="#44A7DF" stroke-width="1.9199" stroke-miterlimit="22.9256" d="M-28.855-30.569
		c-8.116,7.664-13.183,18.525-13.183,30.568c0,23.218,18.826,42.039,42.039,42.039C23.22,42.037,42.039,23.216,42.039-0.001
		C42.039-23.217,23.22-42.038,0-42.038c-8.108,0-15.682,2.299-22.107,6.278"/>
</symbol>
<symbol  id="picture" viewBox="-42.014 -34.931 84.028 69.861">
	<polygon fill="none" stroke="#44A7DF" stroke-width="1.9199" stroke-miterlimit="22.9256" points="40.864,-19.394 40.864,-33.971 
		-41.054,-33.971 -41.054,33.971 40.864,33.971 	"/>
	<path fill="none" stroke="#44A7DF" stroke-width="1.4397" stroke-miterlimit="22.9256" d="M5.719,4.543
		c3.622,0,6.58,2.954,6.58,6.58c0,3.624-2.958,6.582-6.58,6.582c-3.625,0-6.583-2.958-6.583-6.582
		C-0.864,7.497,2.094,4.543,5.719,4.543z"/>
	<polygon fill="#44A7DF" stroke="#44A7DF" stroke-width="0.216" stroke-miterlimit="22.9256" points="-41.359,-10.244 
		-16.271,12.452 6.534,-13.179 20.406,0.943 40.248,-19.324 41.79,-20.899 -41.054,-33.971 	"/>
	<path fill="#44A7DF" stroke="#44A7DF" stroke-width="0.216" stroke-miterlimit="22.9256" d="M41.233-34.841L33.9-22.008
		l-73.333-11.067"/>
	<polyline fill="#44A7DF" stroke="#44A7DF" stroke-width="0.216" stroke-miterlimit="22.9256" points="41.233,-20.675 
		40.864,-33.971 33.9,-22.008 	"/>
</symbol>
<symbol  id="taolun" viewBox="-42.209 -43.667 84.418 87.334">
	<path fill="none" stroke="#44A7DF" stroke-width="1.9199" stroke-miterlimit="22.9256" d="M16.446-35.569
		c2.207,0.998,4.343,2.203,6.391,3.607c5.915-3.24,11.833-6.48,17.748-9.721c-6.596,21.151-4.399,14.102-6.596,21.151
		c4.519,6.953,6.613,14.527,6.613,22.313c0,22.596-18.33,40.925-40.924,40.925c-22.597,0-40.927-18.33-40.927-40.925
		c0-22.598,18.33-40.927,40.927-40.927c3.947,0,7.784,0.544,11.456,1.611"/>
	<path fill="#44A7DF" stroke="#44A7DF" stroke-width="0.5669" stroke-miterlimit="22.9256" d="M-17.994-3.822
		c2.507,0,4.552,2.044,4.552,4.553c0,2.507-2.044,4.553-4.552,4.553c-2.508,0-4.552-2.046-4.552-4.553
		C-22.546-1.778-20.501-3.822-17.994-3.822z"/>
	<path fill="#44A7DF" stroke="#44A7DF" stroke-width="0.5669" stroke-miterlimit="22.9256" d="M0.25-3.822
		c2.508,0,4.552,2.044,4.552,4.553c0,2.507-2.044,4.553-4.552,4.553c-2.507,0-4.552-2.046-4.552-4.553
		C-4.302-1.778-2.258-3.822,0.25-3.822z"/>
	<path fill="#44A7DF" stroke="#44A7DF" stroke-width="0.5669" stroke-miterlimit="22.9256" d="M17.534-3.822
		c2.507,0,4.552,2.044,4.552,4.553c0,2.507-2.044,4.553-4.552,4.553c-2.508,0-4.552-2.046-4.552-4.553
		C12.982-1.778,15.027-3.822,17.534-3.822z"/>
</symbol>
<symbol  id="wode" viewBox="-42.346 -42.343 84.692 84.688">
	<g>
		<path fill="none" stroke="#44A7DF" stroke-width="1.9199" stroke-miterlimit="22.9256" d="M0-1.06
			c8.631,0,15.668,7.041,15.668,15.671S8.63,30.28,0,30.28c-8.633,0-15.671-7.039-15.671-15.669C-15.671,5.98-8.633-1.06,0-1.06z"/>
		<path fill="none" stroke="#44A7DF" stroke-width="1.9199" stroke-miterlimit="22.9256" d="M21.937-23.77
			c0,12.115-9.821,21.938-21.938,21.938c-12.116,0-21.937-9.823-21.937-21.938"/>
	</g>
	<path fill="none" stroke="#44A7DF" stroke-width="1.9199" stroke-miterlimit="22.9256" d="M-27.992-30.482
		c8.096-7.429,19.114-11.64,30.939-10.794c22.796,1.63,39.961,21.433,38.332,44.229c-1.63,22.796-21.438,39.955-44.234,38.325
		S-42.912,19.844-41.279-2.952c0.568-7.965,3.358-15.242,7.716-21.27"/>
</symbol>
<use xlink:href="#taolun"  width="84.418" height="87.334" x="-42.209" y="-43.667" transform="matrix(1 0 0 -1 44.782 45.3486)" overflow="visible"/>
<use xlink:href="#wode"  width="84.692" height="84.688" x="-42.346" y="-42.343" transform="matrix(0.9999 0 0 -0.9999 384.9539 44.1348)" overflow="visible"/>
<use xlink:href="#company"  width="86.039" height="86.038" x="-43.019" y="-43.019" transform="matrix(1 0 0 -1 214.7224 44.3164)" overflow="visible"/>
<use xlink:href="#exit"  width="85.173" height="85.174" x="-42.586" y="-42.587" transform="matrix(1 0 0 -1 382.4128 213.3804)" overflow="visible"/>
<use xlink:href="#discussion"  width="85.586" height="88.536" x="-42.793" y="-44.268" transform="matrix(1 0 0 -1 212.2722 213.8389)" overflow="visible"/>
<use xlink:href="#baomingrenshu"  width="86.65" height="78.358" x="-43.325" y="-39.179" transform="matrix(1 0 0 -1 44.3245 209.1724)" overflow="visible"/>
<use xlink:href="#camera"  width="85.9" height="66.48" x="-42.95" y="-33.24" transform="matrix(1 0 0 -1 553.9265 221.1982)" overflow="visible"/>
<use xlink:href="#huodong"  width="85.997" height="85.996" x="-42.999" y="-42.998" transform="matrix(1 0 0 -1 554.8406 43.998)" overflow="visible"/>
<use xlink:href="#picture"  width="84.028" height="69.861" x="-42.014" y="-34.931" transform="matrix(1 0 0 -1 722.9333 216.6587)" overflow="visible"/>
<use xlink:href="#faxian"  width="83.925" height="83.922" x="-41.963" y="-41.961" transform="matrix(1 0 0 -1 724.4998 43.2007)" overflow="visible"/>
</svg>
