<?xml version="1.0" encoding="utf-8"?>
<!-- Generator: Adobe Illustrator 15.0.0, SVG Export Plug-In . SVG Version: 6.00 Build 0)  -->
<!DOCTYPE svg PUBLIC "-//W3C//DTD SVG 1.1//EN" "http://www.w3.org/Graphics/SVG/1.1/DTD/svg11.dtd">
<svg version="1.1" id="图层_1" xmlns="http://www.w3.org/2000/svg" xmlns:xlink="http://www.w3.org/1999/xlink" x="0px" y="0px"
	 width="841.89px" height="595.28px" viewBox="0 0 841.89 595.28" enable-background="new 0 0 841.89 595.28" xml:space="preserve">
<symbol  id="baoming" viewBox="-42.837 -38.338 85.673 76.676">
	<g>
		
			<path fill-rule="evenodd" clip-rule="evenodd" fill="none" stroke="#B5B5B6" stroke-width="1.9199" stroke-miterlimit="22.9256" d="
			M-11.145-6.526c12.09,0,21.952,9.862,21.952,21.952c0,12.091-9.861,21.952-21.952,21.952c-12.091,0-21.952-9.861-21.952-21.952
			C-33.097,3.335-23.235-6.526-11.145-6.526z"/>
		
			<path fill-rule="evenodd" clip-rule="evenodd" fill="none" stroke="#B5B5B6" stroke-width="1.9199" stroke-miterlimit="22.9256" d="
			M19.586-38.338c0,16.97-13.76,30.729-30.732,30.729c-16.973,0-30.731-13.759-30.731-30.729"/>
	</g>
	
		<path fill-rule="evenodd" clip-rule="evenodd" fill="none" stroke="#B5B5B6" stroke-width="1.9199" stroke-miterlimit="22.9256" d="
		M12.775,33.361c11.479,0,20.788-9.307,20.788-20.788c0-11.481-9.308-20.788-20.788-20.788"/>
	
		<path fill-rule="evenodd" clip-rule="evenodd" fill="none" stroke="#B5B5B6" stroke-width="1.9199" stroke-miterlimit="22.9256" d="
		M41.876-38.338c0,16.07-13.03,29.101-29.102,29.101"/>
</symbol>
<symbol  id="exit" viewBox="-42.786 -42.872 85.573 85.743">
	
		<path fill-rule="evenodd" clip-rule="evenodd" fill="none" stroke="#B5B5B6" stroke-width="1.9199" stroke-miterlimit="22.9256" d="
		M-41.83-3.692c0.983-11.084,6.349-21.758,15.774-29.198c18.163-14.346,44.519-11.25,58.861,6.916
		C47.15-7.81,44.055,18.544,25.889,32.89C7.726,47.234-18.627,44.139-32.973,25.974c-5.012-6.347-7.894-13.696-8.749-21.177"/>
	<g>
		
			<polyline fill-rule="evenodd" clip-rule="evenodd" fill="none" stroke="#B5B5B6" stroke-width="1.9199" stroke-linejoin="round" stroke-miterlimit="22.9256" points="
			-2.879,24.6 19.472,24.6 19.472,-24.715 -3.192,-24.715 		"/>
		
			<polyline fill-rule="evenodd" clip-rule="evenodd" fill="none" stroke="#B5B5B6" stroke-width="1.4397" stroke-linejoin="round" stroke-miterlimit="22.9256" points="
			7.37,-5.307 -9.419,-5.307 -9.419,-12.162 -23.2,-0.106 -9.419,11.947 -9.419,5.094 7.37,5.094 		"/>
	</g>
</symbol>
<symbol  id="faxian" viewBox="-42.796 -42.795 85.591 85.59">
	
		<path fill-rule="evenodd" clip-rule="evenodd" fill="none" stroke="#B5B5B6" stroke-width="1.9199" stroke-miterlimit="22.9256" d="
		M-40.078-11.983c-3.176,10.642-2.141,22.521,3.853,32.897c11.552,20.006,37.133,26.86,57.139,15.31S47.775-0.908,36.224-20.914
		s-37.133-26.86-57.139-15.31c-6.99,4.036-12.372,9.786-15.928,16.41"/>
	<g>
		
			<polyline fill-rule="evenodd" clip-rule="evenodd" fill="none" stroke="#B5B5B6" stroke-width="1.1999" stroke-miterlimit="22.9256" points="
			-4.445,3.907 -4.356,4.04 8.179,12.314 20.659,20.549 12.403,8.041 4.381,-4.504 		"/>
		
			<polyline fill-rule="evenodd" clip-rule="evenodd" fill="none" stroke="#B5B5B6" stroke-width="1.1999" stroke-miterlimit="22.9256" points="
			-4.356,4.04 -12.611,-8.468 -20.866,-20.977 -8.357,-12.722 4.715,-4.122 		"/>
	</g>
	
		<path fill-rule="evenodd" clip-rule="evenodd" fill="none" stroke="#B5B5B6" stroke-width="0.4799" stroke-miterlimit="22.9256" d="
		M-0.001-2.481c1.365,0,2.48,1.116,2.48,2.481c0,1.368-1.115,2.482-2.48,2.482c-1.366,0-2.48-1.114-2.48-2.482
		C-2.481-1.366-1.367-2.481-0.001-2.481z"/>
</symbol>
<symbol  id="gongsi" viewBox="-42.816 -42.817 85.633 85.633">
	
		<polyline fill-rule="evenodd" clip-rule="evenodd" fill="none" stroke="#B5B5B6" stroke-width="1.9199" stroke-linejoin="round" stroke-miterlimit="22.9256" points="
		18.836,-3.648 18.854,-27.435 7.75,-27.301 7.854,-13.14 -6.672,-13.056 -6.801,-27.327 -17.699,-27.39 -17.535,-3.271 
		-29.596,-3.078 0.805,27.438 29.595,-3.153 	"/>
	
		<path fill-rule="evenodd" clip-rule="evenodd" fill="none" stroke="#B5B5B6" stroke-width="1.9199" stroke-miterlimit="22.9256" d="
		M28.309-30.829C20.12-38.346,8.975-42.605-2.985-41.748C-26.042-40.1-43.397-20.071-41.748,2.985
		c1.648,23.056,21.675,40.411,44.733,38.763C26.042,40.1,43.397,20.071,41.748-2.987c-0.576-8.056-3.397-15.415-7.805-21.512"/>
	
		<path fill-rule="evenodd" clip-rule="evenodd" fill="none" stroke="#B5B5B6" stroke-width="1.9199" stroke-miterlimit="22.9256" d="
		M28.309-30.829C20.12-38.346,8.975-42.605-2.985-41.748C-26.042-40.1-43.397-20.071-41.748,2.985
		c1.648,23.056,21.675,40.411,44.733,38.763C26.042,40.1,43.397,20.071,41.748-2.987c-0.576-8.056-3.397-15.415-7.805-21.512"/>
</symbol>
<symbol  id="huodong" viewBox="-42.287 -42.286 84.573 84.573">
	
		<path fill-rule="evenodd" clip-rule="evenodd" fill="#B5B5B6" stroke="#B5B5B6" stroke-width="1.9199" stroke-miterlimit="22.9256" d="
		M2.801,1.666c5.058,1.687,11.744-0.303,15.117-3.675c3.724-3.725,3.055-10.439-0.662-14.155
		c-6.739-6.739-18.912-0.117-32.401-0.117c0,13.49-6.621,25.663,0.118,32.402c3.717,3.718,10.431,4.386,14.155,0.663
		C2.5,13.41,4.488,6.724,2.801,1.666z"/>
	
		<path fill-rule="evenodd" clip-rule="evenodd" fill="none" stroke="#B5B5B6" stroke-width="1.9199" stroke-miterlimit="22.9256" d="
		M-28.369-30.053C-36.348-22.517-41.326-11.839-41.326,0c0,22.824,18.502,41.326,41.326,41.326
		c22.825,0,41.327-18.502,41.327-41.326c0-22.825-18.502-41.327-41.327-41.327c-7.973,0-15.421,2.26-21.735,6.172"/>
</symbol>
<symbol  id="location" viewBox="-34.59 -43.235 69.18 86.469">
	
		<path fill-rule="evenodd" clip-rule="evenodd" fill="none" stroke="#B5B5B6" stroke-width="1.9199" stroke-miterlimit="22.9256" d="
		M0.003-1.801c6.207,0,11.271,5.063,11.271,11.27S6.21,20.739,0.003,20.739c-6.206,0-11.271-5.064-11.271-11.271
		S-6.203-1.801,0.003-1.801z"/>
	
		<path fill-rule="evenodd" clip-rule="evenodd" fill="none" stroke="#B5B5B6" stroke-width="1.9199" stroke-miterlimit="22.9256" d="
		M29.689-5.759C23.151-19.408,9.821-31.799,0.023-41.942c0,0-35.646,28.241-33.565,53.391c1.429,17.266,15.907,30.826,33.545,30.826
		c17.62,0,32.079-13.539,33.539-30.782c0.038-0.452,0.089-0.913,0.089-1.367c0.009-3.198-0.507-6.352-1.432-9.449"/>
</symbol>
<symbol  id="picture" viewBox="-43.377 -36.139 86.753 72.277">
	
		<polyline fill-rule="evenodd" clip-rule="evenodd" fill="none" stroke="#B5B5B6" stroke-width="1.9199" stroke-miterlimit="22.9256" points="
		42.416,-23.548 42.416,-35.179 -42.417,-35.179 -42.417,35.179 42.416,35.179 42.416,-16.619 	"/>
	
		<path fill-rule="evenodd" clip-rule="evenodd" fill="none" stroke="#B5B5B6" stroke-width="1.4397" stroke-miterlimit="22.9256" d="
		M6.02,4.704c3.755,0,6.817,3.061,6.817,6.814c0,3.754-3.063,6.815-6.817,6.815c-3.754,0-6.813-3.061-6.813-6.815
		C-0.794,7.765,2.266,4.704,6.02,4.704z"/>
	
		<polyline fill-rule="evenodd" clip-rule="evenodd" fill="none" stroke="#B5B5B6" stroke-width="1.4397" stroke-miterlimit="22.9256" points="
		6.863,-18.96 22.141,-5.283 36.179,-19.665 	"/>
	
		<polyline fill-rule="evenodd" clip-rule="evenodd" fill="none" stroke="#B5B5B6" stroke-width="1.4397" stroke-miterlimit="22.9256" points="
		-35.345,-10.102 -17.097,8.801 15.108,-28.555 	"/>
</symbol>
<symbol  id="pinglun" viewBox="-42.928 -40.01 85.856 80.02">
	
		<polyline fill-rule="evenodd" clip-rule="evenodd" fill="none" stroke="#B5B5B6" stroke-width="1.9199" stroke-miterlimit="22.9256" points="
		-15.264,-15.711 -41.766,-15.446 -41.965,39.05 41.666,39.05 41.963,-15.685 -0.691,-15.757 -22.734,-39.355 	"/>
	
		<path fill-rule="evenodd" clip-rule="evenodd" fill="none" stroke="#B5B5B6" stroke-width="1.9199" stroke-miterlimit="22.9256" d="
		M-27.325,11.089c4.471,0,8.941,0,13.413,0"/>
	
		<path fill-rule="evenodd" clip-rule="evenodd" fill="none" stroke="#B5B5B6" stroke-width="1.9199" stroke-miterlimit="22.9256" d="
		M-7.466,11.003c4.47,0,8.94,0,13.413,0"/>
	
		<path fill-rule="evenodd" clip-rule="evenodd" fill="none" stroke="#B5B5B6" stroke-width="1.9199" stroke-miterlimit="22.9256" d="
		M12.278,11.052c4.472,0,8.942,0,13.413,0"/>
</symbol>
<symbol  id="search" viewBox="-28.752 -43.224 57.503 86.45">
	
		<path fill-rule="evenodd" clip-rule="evenodd" fill="none" stroke="#B5B5B6" stroke-width="1.9199" stroke-miterlimit="22.9256" d="
		M10.736-11.004C1.085-14.25-6.809-13.609-13.728-9.671c-13.338,7.589-18,24.553-10.411,37.892
		c7.592,13.338,24.556,17.997,37.894,10.405c13.338-7.59,17.998-24.554,10.409-37.892C21.514-3.925,17.716-7.525,10.736-11.004z"/>
	
		<path fill-rule="evenodd" clip-rule="evenodd" fill="none" stroke="#B5B5B6" stroke-width="1.9199" stroke-miterlimit="22.9256" d="
		M23.043-42.872c-4.413,11.275-8.82,22.546-13.23,33.819"/>
</symbol>
<symbol  id="taolun" viewBox="-41.367 -42.798 82.735 85.597">
	
		<path fill-rule="evenodd" clip-rule="evenodd" fill="none" stroke="#B5B5B6" stroke-width="1.9199" stroke-miterlimit="22.9256" d="
		M16.098-34.827c2.165,0.975,4.257,2.154,6.263,3.535c5.793-3.175,11.589-6.351,17.382-9.522
		c-6.464,20.716-4.309,13.812-6.464,20.716c4.429,6.811,6.48,14.229,6.48,21.852c0,22.132-17.953,40.085-40.082,40.085
		c-22.132,0-40.085-17.953-40.085-40.085c0-22.13,17.953-40.083,40.085-40.083c3.865,0,7.624,0.531,11.22,1.578"/>
	
		<path fill-rule="evenodd" clip-rule="evenodd" fill="#B5B5B6" stroke="#B5B5B6" stroke-width="0.5669" stroke-miterlimit="22.9256" d="
		M-17.63-3.734c2.456,0,4.458,2.002,4.458,4.459c0,2.456-2.002,4.46-4.458,4.46c-2.456,0-4.458-2.004-4.458-4.46
		C-22.088-1.732-20.085-3.734-17.63-3.734z"/>
	
		<path fill-rule="evenodd" clip-rule="evenodd" fill="#B5B5B6" stroke="#B5B5B6" stroke-width="0.5669" stroke-miterlimit="22.9256" d="
		M0.239-3.734c2.456,0,4.458,2.002,4.458,4.459c0,2.456-2.002,4.46-4.458,4.46c-2.456,0-4.458-2.004-4.458-4.46
		C-4.22-1.732-2.217-3.734,0.239-3.734z"/>
	
		<path fill-rule="evenodd" clip-rule="evenodd" fill="#B5B5B6" stroke="#B5B5B6" stroke-width="0.5669" stroke-miterlimit="22.9256" d="
		M17.167-3.734c2.456,0,4.458,2.002,4.458,4.459c0,2.456-2.002,4.46-4.458,4.46s-4.458-2.004-4.458-4.46
		C12.709-1.732,14.711-3.734,17.167-3.734z"/>
</symbol>
<symbol  id="time" viewBox="-43.023 -43.023 86.046 86.046">
	
		<path fill-rule="evenodd" clip-rule="evenodd" fill="none" stroke="#B5B5B6" stroke-width="1.9199" stroke-miterlimit="22.9256" d="
		M-28.875-30.583c-8.12,7.667-13.188,18.534-13.188,30.585c0,23.23,18.83,42.063,42.063,42.063
		c23.229,0,42.063-18.833,42.063-42.063C42.063-23.23,23.23-42.062,0-42.062c-8.117,0-15.698,2.3-22.126,6.28"/>
	
		<path fill-rule="evenodd" clip-rule="evenodd" fill="none" stroke="#B5B5B6" stroke-width="1.9199" stroke-miterlimit="22.9256" d="
		M-2.445-3.707c7.617,0,15.231,0,22.846,0"/>
	
		<path fill-rule="evenodd" clip-rule="evenodd" fill="none" stroke="#B5B5B6" stroke-width="1.9199" stroke-miterlimit="22.9256" d="
		M0-8.815C0,2.786,0,14.387,0,25.987"/>
</symbol>
<symbol  id="wode" viewBox="-42.173 -42.174 84.347 84.347">
	<g>
		
			<path fill-rule="evenodd" clip-rule="evenodd" fill="none" stroke="#B5B5B6" stroke-width="1.9199" stroke-miterlimit="22.9256" d="
			M0.003-1.056c8.595,0,15.606,7.01,15.606,15.607c0,8.595-7.012,15.605-15.606,15.605c-8.596,0-15.607-7.01-15.607-15.605
			C-15.604,5.955-8.593-1.056,0.003-1.056z"/>
		
			<path fill-rule="evenodd" clip-rule="evenodd" fill="none" stroke="#B5B5B6" stroke-width="1.9199" stroke-miterlimit="22.9256" d="
			M21.85-23.672c0,12.066-9.781,21.849-21.847,21.849c-12.069,0-21.848-9.783-21.848-21.849"/>
	</g>
	
		<path fill-rule="evenodd" clip-rule="evenodd" fill="none" stroke="#B5B5B6" stroke-width="1.9199" stroke-miterlimit="22.9256" d="
		M-27.872-30.357c8.06-7.398,19.035-11.592,30.81-10.75c22.703,1.623,39.792,21.344,38.169,44.046
		C39.483,25.642,19.764,42.73-2.941,41.107C-25.644,39.483-42.73,19.763-41.107-2.939c0.566-7.933,3.345-15.179,7.685-21.183"/>
</symbol>
<use xlink:href="#baoming"  width="85.673" height="76.676" x="-42.837" y="-38.338" transform="matrix(1 0 0 -1 41.877 208.4819)" overflow="visible"/>
<use xlink:href="#pinglun"  width="85.856" height="80.02" x="-42.928" y="-40.01" transform="matrix(1 0 0 -1 213.3628 210.1543)" overflow="visible"/>
<use xlink:href="#location"  width="69.18" height="86.469" x="-34.59" y="-43.235" transform="matrix(1 0 0 -1 551.585 212.4487)" overflow="visible"/>
<use xlink:href="#time"  width="86.046" height="86.046" x="-43.023" y="-43.023" transform="matrix(1 0 0 -1 382.7642 213.2515)" overflow="visible"/>
<use xlink:href="#huodong"  width="84.573" height="84.573" x="-42.287" y="-42.286" transform="matrix(1 0 0 -1 42.4268 42.3276)" overflow="visible"/>
<use xlink:href="#taolun"  width="82.735" height="85.597" x="-41.367" y="-42.798" transform="matrix(1 0 0 -1 212.6074 42.8398)" overflow="visible"/>
<use xlink:href="#gongsi"  width="85.633" height="85.633" x="-42.816" y="-42.817" transform="matrix(1 0 0 -1 382.7646 42.8574)" overflow="visible"/>
<use xlink:href="#wode"  width="84.347" height="84.347" x="-42.173" y="-42.174" transform="matrix(1 0 0 -1 552.6602 42.8926)" overflow="visible"/>
<use xlink:href="#faxian"  width="85.591" height="85.59" x="-42.796" y="-42.795" transform="matrix(1 0 0 -1 722.6689 43.0752)" overflow="visible"/>
<use xlink:href="#picture"  width="86.753" height="72.277" x="-43.377" y="-36.139" transform="matrix(1 0 0 -1 722.834 205.3535)" overflow="visible"/>
<use xlink:href="#exit"  width="85.573" height="85.743" x="-42.786" y="-42.872" transform="matrix(1 0 0 -1 42.9766 383.9248)" overflow="visible"/>
<use xlink:href="#search"  width="57.503" height="86.45" x="-28.752" y="-43.224" transform="matrix(1 0 0 -1 211.647 381.8857)" overflow="visible"/>
</svg>
